<?xml version="1.0" standalone="no"?>
<!DOCTYPE svg PUBLIC "-//W3C//DTD SVG 20010904//EN"
 "http://www.w3.org/TR/2001/REC-SVG-20010904/DTD/svg10.dtd">
<svg version="1.0" xmlns="http://www.w3.org/2000/svg"
 width="661.000000pt" height="661.000000pt" viewBox="0 0 661.000000 661.000000"
 preserveAspectRatio="xMidYMid meet">
<metadata>
Created by potrace 1.14, written by Peter Selinger 2001-2017
</metadata>
<g transform="translate(0.000000,661.000000) scale(0.100000,-0.100000)"
fill="#000000" stroke="none">
<path d="M2369 6606 c-2 -2 -35 -6 -74 -10 -38 -4 -81 -8 -95 -10 -61 -9 -109
-17 -155 -26 -27 -6 -59 -12 -70 -14 -28 -6 -207 -55 -225 -63 -8 -3 -21 -7
-28 -9 -43 -9 -226 -86 -338 -144 -128 -65 -336 -193 -342 -211 -2 -5 -8 -9
-14 -9 -5 0 -16 -6 -23 -12 -8 -7 -20 -17 -27 -23 -127 -96 -357 -327 -430
-430 -4 -5 -20 -26 -36 -45 -92 -113 -246 -390 -311 -560 -37 -96 -92 -275
-95 -305 -1 -11 -4 -24 -8 -30 -3 -5 -9 -35 -13 -65 -4 -30 -9 -58 -10 -61 -2
-3 -7 -27 -11 -54 -3 -27 -9 -61 -12 -75 -3 -14 -7 -1021 -9 -2237 l-4 -2213
2511 0 2510 0 0 130 c0 134 2 140 40 120 11 -6 32 -12 47 -15 15 -2 60 -11 98
-19 68 -14 350 -17 400 -4 18 5 81 17 102 20 28 4 179 61 233 88 78 39 190
111 190 122 0 4 5 8 11 8 17 0 158 148 197 206 64 95 82 125 82 137 0 7 4 17
8 23 42 46 108 373 80 390 -4 3 -7 15 -6 27 3 60 -37 222 -77 314 -32 72 -113
203 -126 203 -5 0 -9 5 -9 11 0 35 -198 203 -307 260 -32 17 -62 34 -68 39
-15 12 -214 78 -255 84 -19 3 -46 8 -60 11 -14 3 -60 8 -102 10 -42 3 -80 5
-85 6 -4 1 -10 1 -13 0 -3 -1 -41 -4 -85 -6 -44 -2 -89 -6 -100 -9 -11 -2 -49
-11 -85 -20 -36 -8 -75 -18 -87 -21 l-23 -7 -1 1083 c0 596 -2 1111 -4 1144
-6 77 -11 130 -19 180 -4 22 -9 54 -11 70 -6 44 -32 163 -49 220 -31 108 -47
161 -56 180 -5 11 -23 56 -41 100 -17 44 -36 84 -40 90 -5 5 -9 14 -9 21 0 24
-207 372 -240 404 -3 3 -32 39 -65 80 -57 72 -254 274 -325 334 -54 45 -210
159 -255 186 -22 13 -42 26 -45 29 -7 8 -78 48 -130 74 -25 12 -46 25 -48 30
-2 4 -8 7 -12 7 -5 0 -37 13 -72 29 -122 56 -194 85 -238 96 -3 1 -14 5 -25 9
-52 20 -200 63 -240 70 -16 3 -61 12 -100 20 -38 7 -99 17 -135 22 -36 4 -74
9 -85 11 -26 4 -442 13 -446 9z"/>
</g>
</svg>
