<?xml version="1.0" standalone="no"?>
<!DOCTYPE svg PUBLIC "-//W3C//DTD SVG 20010904//EN"
 "http://www.w3.org/TR/2001/REC-SVG-20010904/DTD/svg10.dtd">
<svg version="1.0" xmlns="http://www.w3.org/2000/svg"
 width="816.000000pt" height="816.000000pt" viewBox="0 0 816.000000 816.000000"
 preserveAspectRatio="xMidYMid meet">
<metadata>
Created by potrace 1.11, written by Peter Selinger 2001-2013
</metadata>
<g transform="translate(0.000000,816.000000) scale(0.100000,-0.100000)"
fill="#000000" stroke="none">
<path d="M3315 7813 c-48 -3 -167 -17 -230 -29 -84 -15 -321 -111 -410 -167
-57 -35 -207 -139 -223 -155 -10 -9 -40 -35 -66 -57 -51 -43 -180 -173 -238
-240 -91 -106 -150 -197 -228 -351 -14 -27 -28 -50 -32 -52 -5 -2 -8 -12 -8
-22 0 -10 -4 -21 -9 -24 -5 -4 -20 -27 -34 -54 -102 -199 -123 -237 -129 -240
-5 -2 -8 -8 -8 -12 0 -5 -13 -32 -30 -60 -16 -27 -27 -50 -25 -50 3 0 -3 -12
-12 -27 -21 -31 -64 -111 -90 -165 -10 -21 -21 -38 -26 -38 -4 0 -6 -4 -3 -8
3 -5 -2 -19 -10 -31 -9 -12 -34 -57 -56 -99 -22 -42 -44 -82 -49 -88 -5 -6 -6
-14 -2 -17 3 -4 1 -7 -5 -7 -7 0 -12 -4 -12 -8 0 -5 -36 -75 -80 -157 -44 -81
-89 -167 -101 -189 -12 -23 -33 -63 -48 -91 -15 -27 -49 -90 -75 -140 -26 -49
-66 -124 -88 -165 -69 -127 -135 -252 -176 -330 -22 -41 -54 -102 -72 -135
-18 -33 -55 -103 -83 -155 -27 -52 -61 -115 -74 -140 -14 -25 -46 -83 -70
-130 -25 -47 -63 -116 -83 -155 -21 -38 -57 -106 -80 -150 -76 -144 -122 -229
-150 -280 -26 -47 -110 -205 -162 -305 -12 -25 -27 -48 -33 -52 -5 -4 -7 -9
-4 -12 5 -5 586 -14 1345 -20 182 -2 336 -6 342 -10 6 -3 13 -2 17 3 4 7 15 7
30 1 16 -6 25 -6 25 0 0 5 7 7 17 3 15 -6 47 -7 139 -4 27 1 34 8 57 55 15 30
32 58 37 61 6 3 10 15 10 26 0 10 5 19 10 19 6 0 10 7 10 15 0 31 22 13 66
-57 89 -139 118 -183 127 -189 5 -3 8 -9 8 -13 -2 -8 52 -90 62 -94 4 -2 7
-10 7 -17 0 -8 6 -20 13 -27 20 -21 67 -97 67 -108 0 -5 4 -10 8 -10 5 0 15
-12 23 -27 8 -16 16 -30 19 -33 13 -13 60 -91 60 -100 0 -5 4 -10 8 -10 5 0
15 -12 23 -27 8 -16 16 -30 19 -33 11 -10 60 -90 60 -97 1 -5 14 -24 30 -43
17 -19 30 -37 30 -41 0 -4 44 -74 98 -156 54 -81 101 -153 103 -158 2 -6 26
-44 53 -85 83 -126 283 -434 337 -520 16 -25 34 -52 39 -60 85 -128 202 -308
207 -320 25 -58 339 -392 435 -463 20 -14 42 -32 50 -39 24 -23 77 -58 87 -58
5 0 11 -4 13 -9 3 -9 172 -111 183 -111 2 0 28 -11 57 -24 59 -27 197 -72 243
-80 17 -3 41 -8 55 -11 49 -12 259 -12 336 1 85 13 96 15 164 35 25 7 47 13
50 14 45 11 120 41 120 47 0 4 7 8 15 8 8 0 30 9 50 20 19 11 35 16 35 12 0
-4 4 -2 8 3 4 6 40 31 81 55 106 65 102 62 148 96 103 76 303 265 363 343 14
18 37 47 53 64 53 62 93 128 203 336 82 155 222 417 245 458 32 58 57 108 57
117 0 5 4 12 9 15 4 3 18 24 29 46 12 22 48 90 80 150 32 61 71 133 86 160 15
28 44 84 66 125 64 122 103 194 114 207 6 7 7 13 2 13 -5 0 -4 4 1 8 6 4 21
30 35 57 14 28 28 52 33 53 4 2 7 12 7 22 0 10 3 20 7 22 5 1 20 26 34 53 59
114 133 252 149 280 9 17 41 75 70 130 29 55 71 134 93 175 22 41 51 98 66
125 14 28 30 53 36 57 5 4 7 8 2 8 -4 0 3 17 16 38 13 20 36 62 51 92 64 123
98 186 107 195 5 5 9 17 9 27 0 10 5 18 10 18 6 0 10 4 10 8 0 5 22 49 48 98
27 49 66 123 87 164 21 41 45 83 53 93 8 9 12 17 8 17 -3 0 2 12 11 27 18 27
30 50 118 221 28 53 56 103 63 110 6 7 12 17 12 22 0 5 13 31 28 57 48 82 51
78 -52 80 -50 0 -140 2 -201 3 -60 1 -114 1 -120 0 -5 -1 -12 -2 -15 -1 -5 2
-536 8 -1218 15 -198 1 -295 -1 -301 -8 -7 -10 -51 -89 -90 -164 l-12 -23 -20
25 c-10 13 -19 27 -19 30 0 4 -5 12 -11 19 -6 7 -35 50 -65 97 -30 47 -100
156 -157 243 -123 190 -213 329 -295 457 -34 52 -65 100 -69 106 -4 5 -13 19
-20 30 -24 39 -117 184 -223 347 -61 93 -110 173 -110 178 0 5 -4 9 -10 9 -5
0 -10 6 -10 13 0 8 -9 22 -20 32 -11 10 -20 24 -20 32 0 7 -4 13 -10 13 -5 0
-10 7 -10 15 0 8 -4 15 -10 15 -5 0 -10 4 -10 10 0 5 -36 64 -80 131 -44 67
-80 123 -80 125 0 1 -31 50 -70 108 -38 58 -70 110 -70 116 0 5 -4 10 -8 10
-5 0 -15 12 -23 28 -8 15 -16 29 -20 32 -3 3 -16 23 -29 45 -45 74 -244 288
-365 393 -28 23 -59 51 -70 61 -30 27 -185 135 -225 156 -159 83 -296 137
-384 150 -21 3 -42 8 -47 10 -4 3 -43 8 -86 11 -43 3 -80 7 -83 7 -3 1 -27 1
-55 0z m236 -1860 c35 -60 79 -133 97 -163 18 -30 35 -63 39 -72 3 -10 9 -18
14 -18 5 0 9 -4 9 -10 0 -5 15 -33 33 -63 17 -29 37 -61 44 -72 23 -39 158
-269 181 -309 13 -23 37 -62 53 -87 16 -25 29 -51 29 -57 0 -5 3 -12 8 -14 6
-2 160 -258 239 -398 11 -19 67 -114 125 -210 57 -96 119 -202 138 -235 18
-33 36 -62 39 -65 3 -3 12 -16 19 -29 60 -106 95 -165 102 -171 3 -3 12 -18
20 -35 8 -16 22 -41 31 -55 9 -14 26 -41 37 -60 75 -133 107 -185 114 -188 4
-2 8 -8 8 -14 0 -6 20 -43 45 -82 25 -40 45 -78 45 -84 0 -5 4 -12 8 -14 8 -3
105 -166 146 -243 12 -22 23 -41 26 -43 32 -17 32 -20 -7 -93 -47 -89 -55
-103 -84 -154 -13 -22 -24 -46 -26 -54 -1 -8 -5 -17 -10 -20 -5 -3 -23 -35
-42 -71 -18 -36 -49 -94 -69 -130 -122 -225 -218 -407 -254 -478 -17 -34 -36
-61 -41 -59 -9 3 -315 505 -333 547 -4 8 -14 23 -23 34 -9 10 -16 21 -15 25 1
3 -9 22 -21 41 -12 19 -33 55 -46 80 -13 25 -27 47 -31 48 -5 2 -8 10 -8 18 0
8 -5 14 -10 14 -6 0 -9 3 -8 8 1 4 -9 25 -23 47 -14 22 -39 63 -55 91 -24 43
-306 517 -334 564 -39 62 -150 254 -150 257 0 3 -15 28 -34 56 -18 29 -45 73
-59 98 -33 61 -50 91 -60 103 -4 6 -31 52 -60 101 -30 50 -87 146 -128 215
-41 68 -76 129 -78 134 -2 5 -25 44 -52 88 -27 44 -49 83 -49 88 0 5 -3 10 -7
12 -5 2 -17 20 -28 40 -52 96 -116 197 -126 200 -7 2 -2 20 14 48 13 25 57
106 97 180 40 74 77 141 82 148 6 6 7 12 2 12 -5 0 -4 4 1 8 6 4 18 23 29 42
10 19 39 76 66 125 46 88 85 160 160 300 21 39 49 90 62 115 29 55 38 70 42
70 2 0 32 -48 67 -107z"/>
</g>
</svg>
