<svg width="816" height="755" viewBox="0 0 816 755" fill="none" xmlns="http://www.w3.org/2000/svg">
<path d="M714.94 472.342L459.908 77.7223L452.011 68.632L443.597 61.0359L431.188 52.8944L388.462 28.6031C378.282 29.6542 361.8 25.1 346.964 28.1316C332.129 31.1632 331.708 138.632 328.636 144.931L520.953 470.137L714.94 472.342Z" fill="#81EFE9"/>
<path d="M714.94 472.342L459.908 77.7223L452.011 68.632L443.597 61.0359L431.188 52.8944L388.462 28.6031C378.282 29.6542 361.8 25.1 346.964 28.1316C332.129 31.1632 331.708 138.632 328.636 144.931L520.953 470.137L714.94 472.342Z" fill="url(#paint0_linear)"/>
<path d="M100.062 282.143L355.094 676.762L362.992 685.853L371.406 693.449L383.814 701.59L426.541 725.882C436.72 724.83 453.203 729.385 468.038 726.353C482.874 723.321 483.295 615.853 486.367 609.554L294.05 284.347L100.062 282.143Z" fill="#81EFE9"/>
<path d="M100.062 282.143L355.094 676.762L362.992 685.853L371.406 693.449L383.814 701.59L426.541 725.882C436.72 724.83 453.203 729.385 468.038 726.353C482.874 723.321 483.295 615.853 486.367 609.554L294.05 284.347L100.062 282.143Z" fill="url(#paint1_linear)"/>
<path d="M201.296 86.0959L-4.97995e-06 463.021L194.487 465.231L396.277 88.8933C415.106 60.0265 426.834 40.0416 459.402 78.2167C347.791 -62.174 241.119 28.5808 201.296 86.0959Z" fill="#81EFE9"/>
<path d="M613.706 668.392L815.002 291.467L620.515 289.257L418.725 665.595C399.896 694.462 388.168 714.447 355.6 676.272C467.211 816.662 573.883 725.907 613.706 668.392Z" fill="#81EFE9"/>
<defs>
<linearGradient id="paint0_linear" x1="359.066" y1="63.2713" x2="623.452" y2="470.802" gradientUnits="userSpaceOnUse">
<stop stop-color="#81EFE9"/>
<stop stop-opacity="0.26"/>
<stop offset="1" stop-color="#0F052F" stop-opacity="0"/>
</linearGradient>
<linearGradient id="paint1_linear" x1="455.937" y1="691.213" x2="191.551" y2="283.683" gradientUnits="userSpaceOnUse">
<stop stop-color="#81EFE9"/>
<stop stop-opacity="0.26"/>
<stop offset="1" stop-color="#0F052F" stop-opacity="0"/>
</linearGradient>
</defs>
</svg>
